<?xml version="1.0" encoding="UTF-8" standalone="no"?>
<!DOCTYPE svg PUBLIC "-//W3C//DTD SVG 1.1//EN" "http://www.w3.org/Graphics/SVG/1.1/DTD/svg11.dtd">
<svg version="1.1" xmlns="http://www.w3.org/2000/svg" xmlns:xlink="http://www.w3.org/1999/xlink" preserveAspectRatio="xMidYMid meet" viewBox="364.99999999999994 98.50668346542079 50.00000000000006 50.00000000000006" width="50" height="50"><defs><path d="M415 123.51C415 137.3 403.8 148.51 390 148.51C376.2 148.51 365 137.3 365 123.51C365 109.71 376.2 98.51 390 98.51C403.8 98.51 415 109.71 415 123.51Z" id="bilSrU0Q"></path><path d="M382.22 123.51C382.22 125.89 380.29 127.83 377.9 127.83C375.52 127.83 373.58 125.89 373.58 123.51C373.58 121.12 375.52 119.19 377.9 119.19C380.29 119.19 382.22 121.12 382.22 123.51Z" id="fDat9bDqc"></path><path d="M394.21 123.51C394.21 125.89 392.28 127.83 389.89 127.83C387.51 127.83 385.57 125.89 385.57 123.51C385.57 121.12 387.51 119.19 389.89 119.19C392.28 119.19 394.21 121.12 394.21 123.51Z" id="b1frIb9bD2"></path><path d="M406.42 123.51C406.42 125.89 404.48 127.83 402.1 127.83C399.71 127.83 397.78 125.89 397.78 123.51C397.78 121.12 399.71 119.19 402.1 119.19C404.48 119.19 406.42 121.12 406.42 123.51Z" id="b74Ue076"></path></defs><g><g><g><use xlink:href="#bilSrU0Q" opacity="1" fill="#92a0b7" fill-opacity="1"></use></g><g><use xlink:href="#fDat9bDqc" opacity="1" fill="#ffffff" fill-opacity="1"></use></g><g><use xlink:href="#b1frIb9bD2" opacity="1" fill="#ffffff" fill-opacity="1"></use></g><g><use xlink:href="#b74Ue076" opacity="1" fill="#ffffff" fill-opacity="1"></use></g></g></g></svg>