<?xml version="1.0" encoding="UTF-8" standalone="no"?>
<!DOCTYPE svg PUBLIC "-//W3C//DTD SVG 1.1//EN" "http://www.w3.org/Graphics/SVG/1.1/DTD/svg11.dtd">
<svg version="1.1" xmlns="http://www.w3.org/2000/svg" xmlns:xlink="http://www.w3.org/1999/xlink" preserveAspectRatio="xMidYMid meet" viewBox="345.00000000000006 202.72202219932805 20.000000005784898 20.000000005784955" width="20" height="20"><defs><path d="M365 212.72C365 218.24 360.52 222.72 355 222.72C349.48 222.72 345 218.24 345 212.72C345 207.2 349.48 202.72 355 202.72C360.52 202.72 365 207.2 365 212.72Z" id="a2sK0aI1iz"></path><path d="M355.28 209.52L357.98 211.5L354.16 216.71L351.46 214.73L355.28 209.52Z" id="b2JDQKJvSn"></path><path d="M359.44 208.59C359.68 208.77 359.73 209.11 359.56 209.35C359.4 209.56 359.03 210.07 358.42 210.9L355.72 208.92C356.32 208.09 356.7 207.58 356.85 207.37C357.03 207.13 357.37 207.08 357.61 207.25C358.06 207.59 358.99 208.26 359.44 208.59Z" id="e3o5b9YYx"></path><path d="M350.98 216.81L351.03 215.32L352.38 216.31L353.73 217.3L352.33 217.8L350.93 218.29L350.98 216.81Z" id="b2FBu4DvmI"></path></defs><g><g><g><use xlink:href="#a2sK0aI1iz" opacity="0.3" fill="#ffffff" fill-opacity="1"></use></g><g><g><use xlink:href="#b2JDQKJvSn" opacity="1" fill="#ffffff" fill-opacity="1"></use></g><g><use xlink:href="#e3o5b9YYx" opacity="1" fill="#ffffff" fill-opacity="1"></use></g><g><use xlink:href="#b2FBu4DvmI" opacity="1" fill="#ffffff" fill-opacity="1"></use></g></g></g></g></svg>