<?xml version="1.0" encoding="UTF-8" standalone="no"?>
<!DOCTYPE svg PUBLIC "-//W3C//DTD SVG 1.1//EN" "http://www.w3.org/Graphics/SVG/1.1/DTD/svg11.dtd">
<svg version="1.1" xmlns="http://www.w3.org/2000/svg" xmlns:xlink="http://www.w3.org/1999/xlink" preserveAspectRatio="xMidYMid meet" viewBox="581.1836455564644 44.69665381978877 19.999999994215045 20.000000005784933" width="20" height="20"><defs><path d="M585.77 64.09C584.95 64.9 583.64 64.9 582.82 64.09C582.32 63.59 582.29 63.56 581.79 63.06C580.98 62.24 580.98 60.93 581.79 60.12C585.05 56.86 593.35 48.56 596.6 45.31C597.41 44.49 598.73 44.49 599.54 45.31C600.04 45.81 600.07 45.84 600.57 46.34C601.39 47.15 601.39 48.47 600.57 49.28C597.32 52.53 589.02 60.83 585.77 64.09Z" id="i1qATeHUeS"></path><path d="M596.6 64.09C597.41 64.9 598.73 64.9 599.54 64.09C600.04 63.59 600.07 63.56 600.57 63.06C601.39 62.24 601.39 60.93 600.57 60.12C597.32 56.86 589.02 48.56 585.77 45.31C584.95 44.49 583.64 44.49 582.82 45.31C582.32 45.81 582.29 45.84 581.79 46.34C580.98 47.15 580.98 48.47 581.79 49.28C585.05 52.53 593.35 60.83 596.6 64.09Z" id="a1iuuGIYmx"></path></defs><g><g><g><use xlink:href="#i1qATeHUeS" opacity="1" fill="#545d6c" fill-opacity="1"></use></g><g><use xlink:href="#a1iuuGIYmx" opacity="1" fill="#545d6c" fill-opacity="1"></use></g></g></g></svg>