<?xml version="1.0" encoding="UTF-8" standalone="no"?>
<!DOCTYPE svg PUBLIC "-//W3C//DTD SVG 1.1//EN" "http://www.w3.org/Graphics/SVG/1.1/DTD/svg11.dtd">
<svg version="1.1" xmlns="http://www.w3.org/2000/svg" xmlns:xlink="http://www.w3.org/1999/xlink" preserveAspectRatio="xMidYMid meet" viewBox="224.99999999999991 98.50668346542082 50.000000000000085 50.00000000000003" width="50" height="50"><defs><path d="M275 123.51C275 137.3 263.8 148.51 250 148.51C236.2 148.51 225 137.3 225 123.51C225 109.71 236.2 98.51 250 98.51C263.8 98.51 275 109.71 275 123.51Z" id="b1KuVU6tUo"></path><path d="M266 123.51C266 132.34 258.83 139.51 250 139.51C241.17 139.51 234 132.34 234 123.51C234 114.68 241.17 107.51 250 107.51C258.83 107.51 266 114.68 266 123.51Z" id="cgeQzjHWy"></path><path d="M246.22 101.17L250 101.17L250 143.5L246.22 143.5L246.22 101.17Z" id="hlHIJWw4l"></path><path d="M231.58 114.89L233.46 111.62L259.22 126.49L257.33 129.76L231.58 114.89Z" id="c4XYGy4yA"></path><path d="M236.24 137.99L233.76 135.14L256.21 115.63L258.68 118.49L236.24 137.99Z" id="fXs9PLq6"></path><path d="M228.56 125.4L228.56 121.62L258.29 121.62L258.29 125.4L228.56 125.4Z" id="e20MMQ3xP"></path><path d="M236.37 106.52L239.51 104.41L256.07 129.11L252.93 131.21L236.37 106.52Z" id="a5dtDgPC1"></path><path d="M248.55 129.58C247.8 130.33 246.58 130.33 245.82 129.58C245.57 129.32 246.1 129.85 245.82 129.58C245.12 128.87 245.12 127.72 245.82 127.01C247.99 124.84 253.28 119.56 255.46 117.37C256.13 116.71 257.21 116.71 257.88 117.37C258.16 117.66 257.73 117.23 257.99 117.49C258.72 118.22 258.72 119.4 257.99 120.13C255.83 122.29 250.7 127.42 248.55 129.58Z" id="b11RNvBI74"></path><path d="M241.95 125.67C241.3 125.01 241.3 123.95 241.95 123.3C242.24 123 241.99 123.26 242.29 122.95C242.91 122.34 243.91 122.34 244.52 122.95C245.57 124 247.63 126.06 248.69 127.12C249.27 127.7 249.27 128.64 248.69 129.22C248.37 129.54 248.54 129.37 248.24 129.67C247.61 130.3 246.58 130.3 245.95 129.67C244.91 128.63 242.98 126.7 241.95 125.67Z" id="caHrvlY3K"></path></defs><g><g><g><use xlink:href="#b1KuVU6tUo" opacity="1" fill="#92a0b7" fill-opacity="1"></use></g><g><use xlink:href="#cgeQzjHWy" opacity="1" fill="#92a0b7" fill-opacity="1"></use><g><use xlink:href="#cgeQzjHWy" opacity="1" fill-opacity="0" stroke="#ffffff" stroke-width="3" stroke-opacity="1"></use></g></g><g><use xlink:href="#hlHIJWw4l" opacity="1" fill="#92a0b7" fill-opacity="1"></use></g><g><use xlink:href="#c4XYGy4yA" opacity="1" fill="#92a0b7" fill-opacity="1"></use></g><g><use xlink:href="#fXs9PLq6" opacity="1" fill="#92a0b7" fill-opacity="1"></use></g><g><use xlink:href="#e20MMQ3xP" opacity="1" fill="#92a0b7" fill-opacity="1"></use></g><g><use xlink:href="#a5dtDgPC1" opacity="1" fill="#92a0b7" fill-opacity="1"></use></g><g><g><use xlink:href="#b11RNvBI74" opacity="1" fill="#ffffff" fill-opacity="1"></use></g><g><use xlink:href="#caHrvlY3K" opacity="1" fill="#ffffff" fill-opacity="1"></use></g></g></g></g></svg>