<?xml version="1.0" encoding="UTF-8" standalone="no"?>
<!DOCTYPE svg PUBLIC "-//W3C//DTD SVG 1.1//EN" "http://www.w3.org/Graphics/SVG/1.1/DTD/svg11.dtd">
<svg version="1.1" xmlns="http://www.w3.org/2000/svg" xmlns:xlink="http://www.w3.org/1999/xlink" preserveAspectRatio="xMidYMid meet" viewBox="155.00000000000003 43.05470606429088 50.00000000000003 50.00000000000006" width="50" height="50"><defs><path d="M205 68.05C205 81.85 193.8 93.05 180 93.05C166.2 93.05 155 81.85 155 68.05C155 54.26 166.2 43.05 180 43.05C193.8 43.05 205 54.26 205 68.05Z" id="bpCBmaI9f"></path><path d="M180.09 54L194.68 63.73L180.09 73.45L165.5 63.73L180.09 54Z" id="c10h14H2A6"></path><path d="M170.62 68.59L182.78 76.65L180.09 80.71L170.61 73.21L170.62 68.59Z" id="dbZQUFgSL"></path><path d="M177.42 76.71L189.54 68.59L189.58 73.19L180.13 80.75L177.42 76.71Z" id="cLF7l2rXg"></path><path d="M192.59 63.73C192.67 63.73 192.74 63.79 192.74 63.88C192.74 65.41 192.74 69.86 192.74 71.4C192.74 71.48 192.67 71.55 192.59 71.55C192.46 71.55 192.21 71.55 192.08 71.55C191.99 71.55 191.93 71.48 191.93 71.4C191.93 69.86 191.93 65.41 191.93 63.88C191.93 63.79 191.99 63.73 192.08 63.73C192.21 63.73 192.46 63.73 192.59 63.73Z" id="aBPSZ6Ix4"></path><path d="M192.76 69.63C192.97 69.63 193.13 69.8 193.13 70C193.13 70.26 193.13 70.67 193.13 70.93C193.13 71.14 192.97 71.3 192.76 71.3C192.51 71.3 192.12 71.3 191.86 71.3C191.66 71.3 191.49 71.14 191.49 70.93C191.49 70.67 191.49 70.26 191.49 70C191.49 69.8 191.66 69.63 191.86 69.63C192.12 69.63 192.51 69.63 192.76 69.63Z" id="a6OVpqekXn"></path></defs><g><g><g><g><use xlink:href="#bpCBmaI9f" opacity="1" fill="#0f9d58" fill-opacity="1"></use></g></g><g><g><use xlink:href="#c10h14H2A6" opacity="1" fill="#ffffff" fill-opacity="1"></use></g><g><use xlink:href="#dbZQUFgSL" opacity="1" fill="#ffffff" fill-opacity="1"></use></g><g><use xlink:href="#cLF7l2rXg" opacity="1" fill="#ffffff" fill-opacity="1"></use></g><g><use xlink:href="#aBPSZ6Ix4" opacity="1" fill="#ffffff" fill-opacity="1"></use></g><g><use xlink:href="#a6OVpqekXn" opacity="1" fill="#ffffff" fill-opacity="1"></use></g></g></g></g></svg>