<?xml version="1.0" encoding="UTF-8" standalone="no"?>
<!DOCTYPE svg PUBLIC "-//W3C//DTD SVG 1.1//EN" "http://www.w3.org/Graphics/SVG/1.1/DTD/svg11.dtd">
<svg version="1.1" xmlns="http://www.w3.org/2000/svg" xmlns:xlink="http://www.w3.org/1999/xlink" preserveAspectRatio="xMidYMid meet" viewBox="154.99999999999991 98.50668346542079 50.00000000000006 50.00000000000003" width="50" height="50"><defs><path d="M205 123.51C205 137.3 193.8 148.51 180 148.51C166.2 148.51 155 137.3 155 123.51C155 109.71 166.2 98.51 180 98.51C193.8 98.51 205 109.71 205 123.51Z" id="cPG0rktI4"></path><path d="M177.82 132.63C176.69 133.76 174.85 133.76 173.72 132.63C173.34 132.24 174.13 133.04 173.72 132.63C172.66 131.56 172.66 129.84 173.72 128.77C176.98 125.52 184.93 117.57 188.21 114.29C189.21 113.29 190.83 113.29 191.83 114.29C192.27 114.72 191.61 114.07 192.01 114.47C193.11 115.56 193.11 117.34 192.01 118.43C188.76 121.68 181.05 129.39 177.82 132.63Z" id="f7avX59uZ"></path><path d="M167.91 126.75C166.92 125.77 166.92 124.17 167.91 123.19C168.34 122.75 167.96 123.13 168.42 122.67C169.35 121.75 170.85 121.75 171.77 122.67C173.34 124.24 176.45 127.35 178.03 128.93C178.9 129.8 178.9 131.22 178.03 132.09C177.55 132.57 177.81 132.31 177.36 132.76C176.41 133.71 174.86 133.71 173.91 132.76C172.35 131.2 169.45 128.3 167.91 126.75Z" id="c3kyHKZ3t4"></path></defs><g><g><g><use xlink:href="#cPG0rktI4" opacity="1" fill="#0f9d58" fill-opacity="1"></use></g><g><g><use xlink:href="#f7avX59uZ" opacity="1" fill="#ffffff" fill-opacity="1"></use></g><g><use xlink:href="#c3kyHKZ3t4" opacity="1" fill="#ffffff" fill-opacity="1"></use></g></g></g></g></svg>