<?xml version="1.0" encoding="UTF-8" standalone="no"?>
<!DOCTYPE svg PUBLIC "-//W3C//DTD SVG 1.1//EN" "http://www.w3.org/Graphics/SVG/1.1/DTD/svg11.dtd">
<svg version="1.1" xmlns="http://www.w3.org/2000/svg" xmlns:xlink="http://www.w3.org/1999/xlink" preserveAspectRatio="xMidYMid meet" viewBox="434.99999999999994 98.50668346542079 50.00000000000006 50.00000000000003" width="50" height="50"><defs><path d="M485 123.51C485 137.3 473.8 148.51 460 148.51C446.2 148.51 435 137.3 435 123.51C435 109.71 446.2 98.51 460 98.51C473.8 98.51 485 109.71 485 123.51Z" id="e26apLVc8j"></path><path d="M454.94 132.63C453.81 133.76 451.98 133.76 450.84 132.63C450.46 132.24 451.25 133.04 450.84 132.63C449.78 131.56 449.78 129.84 450.84 128.77C454.1 125.52 462.05 117.57 465.33 114.29C466.33 113.29 467.95 113.29 468.95 114.29C469.39 114.72 468.73 114.07 469.13 114.47C470.23 115.56 470.23 117.34 469.13 118.43C465.88 121.68 458.17 129.39 454.94 132.63Z" id="fA000fDYu"></path><path d="M465.06 132.63C466.19 133.76 468.02 133.76 469.16 132.63C469.54 132.24 468.75 133.04 469.16 132.63C470.22 131.56 470.22 129.84 469.16 128.77C465.9 125.52 457.95 117.57 454.67 114.29C453.67 113.29 452.05 113.29 451.05 114.29C450.61 114.72 451.27 114.07 450.87 114.47C449.77 115.56 449.77 117.34 450.87 118.43C454.12 121.68 461.83 129.39 465.06 132.63Z" id="a6ztEzfqNb"></path></defs><g><g><g><use xlink:href="#e26apLVc8j" opacity="1" fill="#92a0b7" fill-opacity="1"></use></g><g><g><g><use xlink:href="#fA000fDYu" opacity="1" fill="#ffffff" fill-opacity="1"></use></g></g><g><use xlink:href="#a6ztEzfqNb" opacity="1" fill="#ffffff" fill-opacity="1"></use></g></g></g></g></svg>