<?xml version="1.0" encoding="UTF-8" standalone="no"?>
<!DOCTYPE svg PUBLIC "-//W3C//DTD SVG 1.1//EN" "http://www.w3.org/Graphics/SVG/1.1/DTD/svg11.dtd">
<svg version="1.1" xmlns="http://www.w3.org/2000/svg" xmlns:xlink="http://www.w3.org/1999/xlink" preserveAspectRatio="xMidYMid meet" viewBox="33.5809613182333 40.00000000000001 50.0000488221473 26.05999537147651" width="50" height="26.06"><defs><path d="M53.07 59.14C54.63 60.17 55.05 62.27 54.02 63.82C53.55 64.53 54.01 63.84 53.54 64.55C52.51 66.1 50.42 66.53 48.86 65.5C45.73 63.43 39.02 59 35.85 56.91C34.33 55.9 33.76 53.95 34.5 52.28C34.88 51.44 34.52 52.23 34.85 51.5C35.65 49.7 37.88 49.06 39.52 50.14C42.79 52.32 49.74 56.92 53.07 59.14Z" id="alrgyQbMh"></path><path d="M48.66 40.88C50.19 39.81 52.3 40.19 53.37 41.71C53.86 42.41 53.38 41.73 53.87 42.42C54.94 43.95 54.56 46.06 53.04 47.13C49.75 49.43 42.68 54.38 39.39 56.68C37.86 57.75 35.76 57.38 34.69 55.85C34.2 55.16 34.68 55.84 34.19 55.14C33.12 53.61 33.49 51.51 35.02 50.44C38.3 48.14 45.38 43.18 48.66 40.88Z" id="a8pdlDJsQ"></path><path d="M64.16 46.92C62.6 45.89 62.18 43.79 63.21 42.23C63.68 41.53 63.22 42.22 63.69 41.51C64.72 39.96 66.81 39.53 68.37 40.56C71.47 42.62 78.1 47.01 81.24 49.09C82.77 50.1 83.36 52.06 82.64 53.75C82.28 54.59 82.63 53.79 82.31 54.53C81.55 56.33 79.34 56.99 77.71 55.91C74.44 53.74 67.49 49.13 64.16 46.92Z" id="hpsnk07Wm"></path><path d="M68.5 65.17C66.97 66.24 64.86 65.87 63.79 64.34C63.3 63.65 63.78 64.33 63.3 63.63C62.23 62.11 62.6 60 64.13 58.93C67.41 56.63 74.49 51.67 77.77 49.38C79.3 48.3 81.4 48.68 82.47 50.21C82.96 50.9 82.48 50.22 82.97 50.91C84.04 52.44 83.67 54.55 82.14 55.62C78.86 57.92 71.78 62.88 68.5 65.17Z" id="b7SBeIR5"></path></defs><g><g><g><use xlink:href="#alrgyQbMh" opacity="1" fill="#f4b400" fill-opacity="1"></use></g><g><use xlink:href="#a8pdlDJsQ" opacity="1" fill="#4285f4" fill-opacity="1"></use></g><g><use xlink:href="#hpsnk07Wm" opacity="1" fill="#db4437" fill-opacity="1"></use></g><g><use xlink:href="#b7SBeIR5" opacity="1" fill="#0f9d58" fill-opacity="1"></use></g></g></g></svg>