<?xml version="1.0" encoding="UTF-8" standalone="no"?>
<!DOCTYPE svg PUBLIC "-//W3C//DTD SVG 1.1//EN" "http://www.w3.org/Graphics/SVG/1.1/DTD/svg11.dtd">
<svg version="1.1" xmlns="http://www.w3.org/2000/svg" xmlns:xlink="http://www.w3.org/1999/xlink" preserveAspectRatio="xMidYMid meet" viewBox="280.33928325826207 161.97181992645554 29.321433483475516 29.321433483475488" width="29.32" height="29.32"><defs><path d="M309.66 176.63C309.66 184.72 303.09 191.29 295 191.29C286.91 191.29 280.34 184.72 280.34 176.63C280.34 168.54 286.91 161.97 295 161.97C303.09 161.97 309.66 168.54 309.66 176.63Z" id="ciahT3nNx"></path><path d="M309.66 176.63C309.66 184.72 303.09 191.29 295 191.29C286.91 191.29 280.34 184.72 280.34 176.63C280.34 168.54 286.91 161.97 295 161.97C303.09 161.97 309.66 168.54 309.66 176.63Z" id="a6Hdelt8m"></path><path d="M293.56 166.68C294.44 165.81 295.86 165.81 296.73 166.69C297.05 167.01 296.41 166.37 296.73 166.69C297.6 167.57 297.6 168.99 296.72 169.86C294.72 171.86 290.3 176.25 288.3 178.24C287.42 179.12 286 179.11 285.13 178.23C284.81 177.92 285.44 178.55 285.13 178.23C284.25 177.36 284.26 175.94 285.13 175.06C287.14 173.07 291.56 168.68 293.56 166.68Z" id="b1nfwHR7c"></path><path d="M301.99 175.02C302.87 174.15 304.29 174.15 305.16 175.03C305.48 175.35 304.85 174.71 305.16 175.03C306.04 175.91 306.03 177.33 305.15 178.2C303.15 180.19 298.73 184.59 296.73 186.58C295.85 187.46 294.43 187.45 293.56 186.57C293.24 186.26 293.88 186.89 293.56 186.57C292.69 185.7 292.69 184.28 293.57 183.4C295.57 181.41 299.99 177.01 301.99 175.02Z" id="aMcC1rkK3"></path><path d="M296.71 183.43C297.59 184.3 297.59 185.72 296.71 186.6C296.4 186.92 297.03 186.28 296.71 186.6C295.84 187.48 294.42 187.48 293.54 186.6C291.55 184.6 287.14 180.2 285.14 178.2C284.27 177.32 284.27 175.9 285.14 175.03C285.46 174.71 284.82 175.34 285.14 175.03C286.02 174.15 287.44 174.15 288.31 175.03C290.31 177.02 294.72 181.43 296.71 183.43Z" id="g2CL9UdvB"></path><path d="M305.15 175.07C306.02 175.94 306.02 177.36 305.15 178.24C304.83 178.56 305.47 177.92 305.15 178.24C304.27 179.11 302.85 179.11 301.98 178.24C299.98 176.24 295.57 171.83 293.57 169.84C292.7 168.96 292.7 167.54 293.57 166.67C293.89 166.35 293.26 166.98 293.57 166.67C294.45 165.79 295.87 165.79 296.75 166.67C298.74 168.66 303.15 173.07 305.15 175.07Z" id="aHZXYkkrd"></path><path d="M297.4 184.99C297.4 186.23 296.4 187.23 295.16 187.23C293.92 187.23 292.92 186.23 292.92 184.99C292.92 183.75 293.92 182.75 295.16 182.75C296.4 182.75 297.4 183.75 297.4 184.99Z" id="annniYSLq"></path></defs><g><g><g><use xlink:href="#ciahT3nNx" opacity="1" fill="#d2d2e2" fill-opacity="1"></use></g><g><g><use xlink:href="#a6Hdelt8m" opacity="0" fill="#4285f4" fill-opacity="1"></use></g><g><use xlink:href="#b1nfwHR7c" opacity="1" fill="#ededed" fill-opacity="1"></use></g><g><use xlink:href="#aMcC1rkK3" opacity="1" fill="#ffffff" fill-opacity="1"></use></g><g><use xlink:href="#g2CL9UdvB" opacity="1" fill="#ededed" fill-opacity="1"></use></g><g><use xlink:href="#aHZXYkkrd" opacity="1" fill="#ffffff" fill-opacity="1"></use></g><g><use xlink:href="#annniYSLq" opacity="1" fill="#d7d7d7" fill-opacity="1"></use></g></g></g></g></svg>