<?xml version="1.0" encoding="UTF-8" standalone="no"?>
<!DOCTYPE svg PUBLIC "-//W3C//DTD SVG 1.1//EN" "http://www.w3.org/Graphics/SVG/1.1/DTD/svg11.dtd">
<svg version="1.1" xmlns="http://www.w3.org/2000/svg" xmlns:xlink="http://www.w3.org/1999/xlink" preserveAspectRatio="xMidYMid meet" viewBox="294.99999999999994 98.50668346542085 50.00000000000006 50.00000000000003" width="50" height="50"><defs><path d="M345 123.51C345 137.3 333.8 148.51 320 148.51C306.2 148.51 295 137.3 295 123.51C295 109.71 306.2 98.51 320 98.51C333.8 98.51 345 109.71 345 123.51Z" id="igHle10kw"></path><clipPath id="clipe37MN0Z4oe"><use xlink:href="#igHle10kw" opacity="1"></use></clipPath><path d="M315.02 118L314.5 119.24L314.18 120.56L314.06 121.95L314.18 123.35L314.5 124.67L315.02 125.91L315.72 127.03L316.58 128.04L317.59 128.9L318.71 129.6L319.95 130.12L321.27 130.45L322.67 130.56L323.78 130.47L326.74 134.69L325.57 134.99L324.23 135.2L322.85 135.27L321.47 135.2L320.13 134.99L318.84 134.66L317.6 134.21L316.42 133.64L315.31 132.96L314.27 132.18L313.31 131.31L312.44 130.35L311.66 129.32L310.98 128.2L310.42 127.02L309.96 125.78L309.63 124.49L309.42 123.15L309.35 121.77L309.42 120.39L309.63 119.06L309.96 117.76L310.42 116.52L310.98 115.34L311.66 114.23L312.05 113.71L315.04 117.98L315.02 118Z" id="b2a2Br221"></path><path d="M315.82 111.51C316.87 110.94 318.2 111.32 318.78 112.37C319.34 113.39 319.97 114.55 320.53 115.57C321.11 116.63 320.73 117.95 319.67 118.53C318.65 119.09 317.5 119.72 316.47 120.28C315.42 120.86 314.1 120.48 313.52 119.42C312.96 118.4 312.32 117.25 311.76 116.23C311.19 115.17 311.57 113.85 312.62 113.27C313.64 112.71 314.8 112.08 315.82 111.51Z" id="ctlvIxJ2c"></path><path d="M326.18 125.76C327.24 125.19 328.56 125.58 329.13 126.64C329.69 127.67 330.31 128.83 330.87 129.85C331.44 130.91 331.05 132.23 329.99 132.8C328.96 133.35 327.8 133.98 326.78 134.54C325.72 135.11 324.4 134.71 323.83 133.66C323.28 132.63 322.65 131.47 322.1 130.45C321.52 129.39 321.92 128.07 322.97 127.5C324 126.94 325.16 126.32 326.18 125.76Z" id="e6KWlWxBfW"></path></defs><g><g><g><use xlink:href="#igHle10kw" opacity="1" fill="#ffffff" fill-opacity="1"></use><g clip-path="url(#clipe37MN0Z4oe)"><use xlink:href="#igHle10kw" opacity="1" fill-opacity="0" stroke="#4285f4" stroke-width="6" stroke-opacity="1"></use></g></g><g><g><g><use xlink:href="#b2a2Br221" opacity="1" fill="#4285f4" fill-opacity="1"></use></g><g><use xlink:href="#ctlvIxJ2c" opacity="1" fill="#4285f4" fill-opacity="1"></use></g></g><g><use xlink:href="#e6KWlWxBfW" opacity="1" fill="#4285f4" fill-opacity="1"></use></g></g></g></g></svg>