<?xml version="1.0" encoding="UTF-8" standalone="no"?>
<!DOCTYPE svg PUBLIC "-//W3C//DTD SVG 1.1//EN" "http://www.w3.org/Graphics/SVG/1.1/DTD/svg11.dtd">
<svg version="1.1" xmlns="http://www.w3.org/2000/svg" xmlns:xlink="http://www.w3.org/1999/xlink" preserveAspectRatio="xMidYMid meet" viewBox="293.99999999999966 44.696653819788764 50 50.00000000000006" width="50" height="50"><defs><path d="M344 69.7C344 83.49 332.8 94.7 319 94.7C305.2 94.7 294 83.49 294 69.7C294 55.9 305.2 44.7 319 44.7C332.8 44.7 344 55.9 344 69.7Z" id="cdXBUW9Fh"></path><path d="M314.02 64.19L313.5 65.43L313.18 66.75L313.06 68.14L313.18 69.54L313.5 70.86L314.02 72.1L314.72 73.22L315.58 74.23L316.59 75.09L317.71 75.79L318.95 76.31L320.27 76.64L321.67 76.75L322.78 76.66L325.74 80.88L324.57 81.18L323.23 81.39L321.85 81.46L320.47 81.39L319.13 81.18L317.84 80.85L316.6 80.4L315.42 79.83L314.31 79.15L313.27 78.37L312.31 77.5L311.44 76.54L310.66 75.51L309.98 74.39L309.42 73.21L308.96 71.97L308.63 70.68L308.42 69.34L308.35 67.96L308.42 66.58L308.63 65.25L308.96 63.95L309.42 62.71L309.98 61.53L310.66 60.42L311.05 59.9L314.04 64.17L314.02 64.19Z" id="fSRhjUMb6"></path><path d="M314.82 57.7C315.87 57.13 317.2 57.51 317.78 58.56C318.34 59.58 318.97 60.74 319.53 61.76C320.11 62.82 319.73 64.14 318.67 64.72C317.65 65.28 316.5 65.91 315.47 66.47C314.42 67.05 313.1 66.67 312.52 65.61C311.96 64.59 311.32 63.44 310.76 62.41C310.19 61.36 310.57 60.04 311.62 59.46C312.64 58.9 313.8 58.27 314.82 57.7Z" id="atPDJKrUN"></path><path d="M325.18 71.95C326.24 71.38 327.56 71.77 328.13 72.83C328.69 73.86 329.31 75.02 329.87 76.04C330.44 77.1 330.05 78.42 328.99 78.99C327.96 79.54 326.8 80.17 325.78 80.73C324.72 81.3 323.4 80.9 322.83 79.85C322.28 78.82 321.65 77.66 321.1 76.64C320.52 75.58 320.92 74.26 321.97 73.69C323 73.13 324.16 72.51 325.18 71.95Z" id="a2vlN1kOmd"></path></defs><g><g><g><use xlink:href="#cdXBUW9Fh" opacity="1" fill="#f4b400" fill-opacity="1"></use></g><g><g><g><use xlink:href="#fSRhjUMb6" opacity="1" fill="#ffffff" fill-opacity="1"></use></g><g><use xlink:href="#atPDJKrUN" opacity="1" fill="#ffffff" fill-opacity="1"></use></g></g><g><use xlink:href="#a2vlN1kOmd" opacity="1" fill="#ffffff" fill-opacity="1"></use></g></g></g></g></svg>