<?xml version="1.0" encoding="UTF-8" standalone="no"?>
<!DOCTYPE svg PUBLIC "-//W3C//DTD SVG 1.1//EN" "http://www.w3.org/Graphics/SVG/1.1/DTD/svg11.dtd">
<svg version="1.1" xmlns="http://www.w3.org/2000/svg" xmlns:xlink="http://www.w3.org/1999/xlink" preserveAspectRatio="xMidYMid meet" viewBox="293.9999999999998 44.696653819788764 50 50.00000000000006" width="50" height="50"><defs><path d="M344 69.7C344 83.49 332.8 94.7 319 94.7C305.2 94.7 294 83.49 294 69.7C294 55.9 305.2 44.7 319 44.7C332.8 44.7 344 55.9 344 69.7Z" id="e2Aj1ynHRg"></path><clipPath id="clipa365vFMuf"><use xlink:href="#e2Aj1ynHRg" opacity="1"></use></clipPath><path d="M314.23 64.53L313.71 65.76L313.38 67.08L313.27 68.48L313.38 69.87L313.71 71.2L314.23 72.43L314.93 73.56L315.79 74.56L316.8 75.42L317.92 76.12L319.16 76.64L320.48 76.97L321.88 77.08L322.99 76.99L325.95 81.21L324.77 81.52L323.44 81.72L322.06 81.79L320.68 81.72L319.34 81.52L318.05 81.18L316.81 80.73L315.63 80.16L314.51 79.48L313.48 78.71L312.52 77.84L311.65 76.88L310.87 75.84L310.19 74.73L309.62 73.55L309.17 72.31L308.84 71.01L308.63 69.68L308.56 68.3L308.63 66.92L308.84 65.58L309.17 64.29L309.62 63.05L310.19 61.87L310.87 60.75L311.26 60.23L314.25 64.5L314.23 64.53Z" id="c2ajmADddp"></path><path d="M315.03 58.04C316.08 57.46 317.41 57.84 317.98 58.9C318.55 59.92 319.18 61.07 319.74 62.1C320.32 63.15 319.94 64.47 318.88 65.05C317.86 65.61 316.7 66.25 315.68 66.81C314.63 67.38 313.31 67 312.73 65.95C312.17 64.93 311.53 63.77 310.97 62.75C310.39 61.7 310.78 60.37 311.83 59.79C312.85 59.23 314.01 58.6 315.03 58.04Z" id="gjrYzoI3"></path><path d="M325.39 72.29C326.45 71.71 327.77 72.11 328.34 73.16C328.9 74.19 329.52 75.35 330.08 76.37C330.65 77.43 330.26 78.75 329.2 79.32C328.17 79.88 327.01 80.5 325.99 81.06C324.93 81.63 323.61 81.24 323.04 80.18C322.49 79.15 321.86 77.99 321.3 76.97C320.73 75.91 321.13 74.59 322.18 74.02C323.21 73.47 324.37 72.84 325.39 72.29Z" id="c10wQuYHke"></path></defs><g><g><g><use xlink:href="#e2Aj1ynHRg" opacity="1" fill="#ffffff" fill-opacity="1"></use><g clip-path="url(#clipa365vFMuf)"><use xlink:href="#e2Aj1ynHRg" opacity="1" fill-opacity="0" stroke="#f4b400" stroke-width="6" stroke-opacity="1"></use></g></g><g><g><g><use xlink:href="#c2ajmADddp" opacity="1" fill="#f4b400" fill-opacity="1"></use></g><g><use xlink:href="#gjrYzoI3" opacity="1" fill="#f4b400" fill-opacity="1"></use></g></g><g><use xlink:href="#c10wQuYHke" opacity="1" fill="#f4b400" fill-opacity="1"></use></g></g></g></g></svg>