<?xml version="1.0" encoding="UTF-8" standalone="no"?>
<!DOCTYPE svg PUBLIC "-//W3C//DTD SVG 1.1//EN" "http://www.w3.org/Graphics/SVG/1.1/DTD/svg11.dtd">
<svg version="1.1" xmlns="http://www.w3.org/2000/svg" xmlns:xlink="http://www.w3.org/1999/xlink" preserveAspectRatio="xMidYMid meet" viewBox="294.9999999999999 -10.000000000000028 50.000000000000114 50.00000000000003" width="50" height="50"><defs><path d="M345 15C345 28.8 333.8 40 320 40C306.2 40 295 28.8 295 15C295 1.2 306.2 -10 320 -10C333.8 -10 345 1.2 345 15Z" id="acBvELzn"></path><clipPath id="clipd1qrgc4wpB"><use xlink:href="#acBvELzn" opacity="1"></use></clipPath><path d="M315.02 9.5L314.5 10.73L314.18 12.05L314.06 13.45L314.18 14.84L314.5 16.17L315.02 17.4L315.72 18.53L316.58 19.53L317.59 20.39L318.71 21.09L319.95 21.61L321.27 21.94L322.67 22.05L323.78 21.96L326.74 26.18L325.57 26.49L324.23 26.69L322.85 26.76L321.47 26.69L320.13 26.49L318.84 26.15L317.6 25.7L316.42 25.13L315.31 24.45L314.27 23.68L313.31 22.81L312.44 21.85L311.66 20.81L310.98 19.7L310.42 18.52L309.96 17.28L309.63 15.98L309.42 14.65L309.35 13.27L309.42 11.89L309.63 10.55L309.96 9.26L310.42 8.02L310.98 6.84L311.66 5.72L312.05 5.2L315.04 9.47L315.02 9.5Z" id="a3fO5cfx3H"></path><path d="M315.82 3.01C316.87 2.43 318.2 2.81 318.78 3.87C319.34 4.89 319.97 6.04 320.53 7.07C321.11 8.12 320.73 9.44 319.67 10.02C318.65 10.58 317.5 11.22 316.47 11.78C315.42 12.35 314.1 11.97 313.52 10.92C312.96 9.9 312.32 8.74 311.76 7.72C311.19 6.67 311.57 5.34 312.62 4.76C313.64 4.2 314.8 3.57 315.82 3.01Z" id="btJKQQo6"></path><path d="M326.18 17.26C327.24 16.68 328.56 17.08 329.13 18.13C329.69 19.16 330.31 20.32 330.87 21.34C331.44 22.4 331.05 23.72 329.99 24.29C328.96 24.85 327.8 25.47 326.78 26.03C325.72 26.6 324.4 26.21 323.83 25.15C323.28 24.12 322.65 22.96 322.1 21.94C321.52 20.88 321.92 19.56 322.97 18.99C324 18.44 325.16 17.81 326.18 17.26Z" id="ezkS07GVB"></path></defs><g><g><g><use xlink:href="#acBvELzn" opacity="1" fill="#ffffff" fill-opacity="1"></use><g clip-path="url(#clipd1qrgc4wpB)"><use xlink:href="#acBvELzn" opacity="1" fill-opacity="0" stroke="#db4437" stroke-width="6" stroke-opacity="1"></use></g></g><g><g><g><use xlink:href="#a3fO5cfx3H" opacity="1" fill="#db4437" fill-opacity="1"></use></g><g><use xlink:href="#btJKQQo6" opacity="1" fill="#db4437" fill-opacity="1"></use></g></g><g><use xlink:href="#ezkS07GVB" opacity="1" fill="#db4437" fill-opacity="1"></use></g></g></g></g></svg>