<?xml version="1.0" encoding="UTF-8" standalone="no"?>
<!DOCTYPE svg PUBLIC "-//W3C//DTD SVG 1.1//EN" "http://www.w3.org/Graphics/SVG/1.1/DTD/svg11.dtd">
<svg version="1.1" xmlns="http://www.w3.org/2000/svg" xmlns:xlink="http://www.w3.org/1999/xlink" preserveAspectRatio="xMidYMid meet" viewBox="330.3392832582623 161.97181992645557 29.321433483475403 29.32143348347546" width="29.32" height="29.32"><defs><path d="M359.66 176.63C359.66 184.72 353.09 191.29 345 191.29C336.91 191.29 330.34 184.72 330.34 176.63C330.34 168.54 336.91 161.97 345 161.97C353.09 161.97 359.66 168.54 359.66 176.63Z" id="bV9i0tcI2"></path><path d="M349.4 169.2C350.16 169.2 350.77 169.81 350.77 170.56C350.77 173.26 350.77 179.99 350.77 182.69C350.77 183.44 350.16 184.05 349.4 184.05C348.26 184.05 346.19 184.05 345.04 184.05C345.04 184.05 342.31 184.05 342.31 184.05C341.69 184.05 341.21 184.05 340.6 184.05C339.84 184.05 339.23 183.44 339.23 182.69C339.23 179.99 339.23 173.26 339.23 170.56C339.23 169.81 339.84 169.2 340.6 169.2C342.63 169.2 347.37 169.2 349.4 169.2Z" id="hIMtx0Us6"></path><path d="M346.87 168.23C347.34 168.23 347.72 168.61 347.72 169.08C347.72 169.24 347.72 169.63 347.72 170.27L342.32 170.27C342.32 169.63 342.32 169.24 342.32 169.08C342.32 168.61 342.7 168.23 343.17 168.23C344.08 168.23 345.96 168.23 346.87 168.23Z" id="b6rzTeCYq"></path><path d="M345.07 167.37L345.11 167.37L345.14 167.38L345.18 167.39L345.21 167.39L345.25 167.4L345.28 167.41L345.31 167.43L345.35 167.44L345.38 167.45L345.41 167.47L345.44 167.49L345.47 167.5L345.5 167.52L345.53 167.54L345.55 167.56L345.58 167.59L345.6 167.61L345.63 167.63L345.65 167.66L345.68 167.69L345.7 167.71L345.72 167.74L345.74 167.77L345.76 167.8L345.77 167.83L345.79 167.86L345.81 167.89L345.82 167.92L345.83 167.96L345.84 167.99L345.86 168.02L345.86 168.06L345.87 168.09L345.88 168.13L345.88 168.17L345.89 168.2L345.89 168.24L345.89 168.28L345.89 168.31L345.89 168.35L345.88 168.39L345.88 168.43L345.87 168.46L345.86 168.5L345.86 168.53L345.84 168.57L345.83 168.61L345.82 168.64L345.81 168.68L345.79 168.72L345.77 168.75L345.76 168.79L345.74 168.83L345.72 168.86L345.7 168.9L345.68 168.94L345.65 168.98L345.63 169.02L345.6 169.06L345.58 169.1L345.55 169.14L345.53 169.18L345.5 169.22L345.47 169.26L345.44 169.3L345.41 169.35L345.38 169.39L345.35 169.44L345.31 169.49L345.28 169.53L345.25 169.58L345.21 169.63L345.18 169.68L345.14 169.73L345.11 169.79L345.07 169.84L345.04 169.9L345 169.95L344.96 169.9L344.93 169.84L344.89 169.79L344.86 169.73L344.82 169.68L344.79 169.63L344.75 169.58L344.72 169.53L344.69 169.49L344.65 169.44L344.62 169.39L344.59 169.35L344.56 169.3L344.53 169.26L344.5 169.22L344.47 169.18L344.45 169.14L344.42 169.1L344.4 169.06L344.37 169.02L344.35 168.98L344.32 168.94L344.3 168.9L344.28 168.86L344.26 168.83L344.24 168.79L344.23 168.75L344.21 168.72L344.19 168.68L344.18 168.64L344.17 168.61L344.16 168.57L344.14 168.53L344.14 168.5L344.13 168.46L344.12 168.43L344.12 168.39L344.11 168.35L344.11 168.31L344.11 168.28L344.11 168.24L344.11 168.2L344.12 168.17L344.12 168.13L344.13 168.09L344.14 168.06L344.14 168.02L344.16 167.99L344.17 167.96L344.18 167.92L344.19 167.89L344.21 167.86L344.23 167.83L344.24 167.8L344.26 167.77L344.28 167.74L344.3 167.71L344.32 167.69L344.35 167.66L344.37 167.63L344.4 167.61L344.42 167.59L344.45 167.56L344.47 167.54L344.5 167.52L344.53 167.5L344.56 167.49L344.59 167.47L344.62 167.45L344.65 167.44L344.69 167.43L344.72 167.41L344.75 167.4L344.79 167.39L344.82 167.39L344.86 167.38L344.89 167.37L344.93 167.37L344.96 167.37L345 167.37L345.04 167.37L345.07 167.37ZM344.97 167.8L344.95 167.8L344.93 167.8L344.92 167.81L344.9 167.81L344.88 167.82L344.87 167.82L344.85 167.83L344.84 167.83L344.82 167.84L344.81 167.85L344.79 167.85L344.78 167.86L344.76 167.87L344.75 167.88L344.74 167.89L344.73 167.9L344.71 167.91L344.7 167.92L344.69 167.94L344.68 167.95L344.67 167.96L344.66 167.97L344.65 167.99L344.64 168L344.63 168.02L344.63 168.03L344.62 168.05L344.61 168.06L344.61 168.08L344.6 168.09L344.59 168.11L344.59 168.13L344.59 168.14L344.58 168.16L344.58 168.18L344.58 168.19L344.58 168.21L344.58 168.23L344.58 168.25L344.58 168.26L344.58 168.28L344.58 168.3L344.59 168.32L344.59 168.33L344.59 168.35L344.6 168.37L344.61 168.38L344.61 168.4L344.62 168.41L344.63 168.43L344.63 168.44L344.64 168.46L344.65 168.47L344.66 168.48L344.67 168.5L344.68 168.51L344.69 168.52L344.7 168.53L344.71 168.55L344.73 168.56L344.74 168.57L344.75 168.58L344.76 168.59L344.78 168.6L344.79 168.6L344.81 168.61L344.82 168.62L344.84 168.63L344.85 168.63L344.87 168.64L344.88 168.64L344.9 168.65L344.92 168.65L344.93 168.65L344.95 168.66L344.97 168.66L344.98 168.66L345 168.66L345.02 168.66L345.03 168.66L345.05 168.66L345.07 168.65L345.08 168.65L345.1 168.65L345.12 168.64L345.13 168.64L345.15 168.63L345.16 168.63L345.18 168.62L345.19 168.61L345.21 168.6L345.22 168.6L345.24 168.59L345.25 168.58L345.26 168.57L345.27 168.56L345.29 168.55L345.3 168.53L345.31 168.52L345.32 168.51L345.33 168.5L345.34 168.48L345.35 168.47L345.36 168.46L345.37 168.44L345.37 168.43L345.38 168.41L345.39 168.4L345.39 168.38L345.4 168.37L345.41 168.35L345.41 168.33L345.41 168.32L345.42 168.3L345.42 168.28L345.42 168.26L345.42 168.25L345.42 168.23L345.42 168.21L345.42 168.19L345.42 168.18L345.42 168.16L345.41 168.14L345.41 168.13L345.41 168.11L345.4 168.09L345.39 168.08L345.39 168.06L345.38 168.05L345.37 168.03L345.37 168.02L345.36 168L345.35 167.99L345.34 167.97L345.33 167.96L345.32 167.95L345.31 167.94L345.3 167.92L345.29 167.91L345.27 167.9L345.26 167.89L345.25 167.88L345.24 167.87L345.22 167.86L345.21 167.85L345.19 167.85L345.18 167.84L345.16 167.83L345.15 167.83L345.13 167.82L345.12 167.82L345.1 167.81L345.08 167.81L345.07 167.8L345.05 167.8L345.03 167.8L345.02 167.8L345 167.8L344.98 167.8L344.97 167.8Z" id="b9Fg14eTGX"></path><path d="M344.46 179.24C344.19 179.53 343.72 179.53 343.45 179.24C343.36 179.14 343.55 179.35 343.45 179.24C343.18 178.95 343.18 178.51 343.45 178.23C344.26 177.37 346.22 175.29 347.03 174.43C347.27 174.17 347.68 174.17 347.92 174.43C348.03 174.54 347.87 174.37 347.97 174.48C348.24 174.77 348.24 175.22 347.97 175.51C347.16 176.37 345.26 178.39 344.46 179.24Z" id="b6jG1VPJm"></path><path d="M342.01 177.7C341.77 177.43 341.77 177.03 342.01 176.76C342.12 176.65 342.03 176.75 342.14 176.63C342.37 176.39 342.74 176.39 342.97 176.63C343.36 177.04 344.12 177.85 344.51 178.27C344.73 178.5 344.73 178.86 344.51 179.1C344.4 179.22 344.46 179.15 344.35 179.27C344.12 179.52 343.73 179.52 343.5 179.27C343.11 178.86 342.39 178.1 342.01 177.7Z" id="aILKvysM7"></path></defs><g><g><g><g><use xlink:href="#bV9i0tcI2" opacity="1" fill="#d2d2e2" fill-opacity="1"></use></g></g><g><g><use xlink:href="#hIMtx0Us6" opacity="1" fill="#ffffff" fill-opacity="0.3"></use><g><use xlink:href="#hIMtx0Us6" opacity="1" fill-opacity="0" stroke="#ffffff" stroke-width="0.76" stroke-opacity="1"></use></g></g><g><use xlink:href="#b6rzTeCYq" opacity="1" fill="#ffffff" fill-opacity="1"></use></g><g><use xlink:href="#b9Fg14eTGX" opacity="1" fill="#ffffff" fill-opacity="1"></use></g><g><g><use xlink:href="#b6jG1VPJm" opacity="1" fill="#ffffff" fill-opacity="1"></use></g><g><use xlink:href="#aILKvysM7" opacity="1" fill="#ffffff" fill-opacity="1"></use></g></g></g></g></g></svg>